<svg xmlns="http://www.w3.org/2000/svg" viewBox="0 0 520 280" font-family="'SF Mono','Fira Code','Cascadia Code',monospace">
  <style>
    .box { fill:#1e1e2e; stroke:#89b4fa; stroke-width:1.5; rx:8; }
    .label-c { fill:#cdd6f4; text-anchor:middle; font-size:13px; }
    .note { fill:#a6adc8; font-size:11px; text-anchor:middle; }
    .branch { stroke:#585b70; stroke-width:1.5; fill:none; }
    .size { fill:#f9e2af; font-size:12px; }
    .desc { fill:#a6adc8; font-size:11px; }
  </style>
  <rect width="520" height="280" fill="#181825" rx="12"/>

  <!-- Source image -->
  <rect x="20" y="112" width="140" height="50" class="box" style="stroke:#f9e2af;"/>
  <text x="90" y="130" class="label-c" fill="#f9e2af" font-weight="bold">sunset.jpg</text>
  <text x="90" y="150" class="note">4000 × 3000</text>

  <!-- Branches -->
  <line x1="160" y1="137" x2="215" y2="50" class="branch"/>
  <line x1="160" y1="137" x2="215" y2="97" class="branch"/>
  <line x1="160" y1="137" x2="215" y2="137" class="branch"/>
  <line x1="160" y1="137" x2="215" y2="177" class="branch"/>
  <line x1="160" y1="137" x2="215" y2="220" class="branch"/>

  <!-- Output boxes -->
  <rect x="220" y="34" width="280" height="30" class="box"/>
  <text x="250" y="52" class="size">20px</text>
  <text x="380" y="52" class="desc">blurred placeholder (base64)</text>

  <rect x="220" y="80" width="280" height="30" class="box"/>
  <text x="250" y="98" class="size">100px</text>
  <text x="360" y="98" class="desc">tiny thumbnail</text>

  <rect x="220" y="122" width="280" height="30" class="box"/>
  <text x="250" y="140" class="size">250px</text>
  <text x="362" y="140" class="desc">small thumbnail</text>

  <rect x="220" y="164" width="280" height="30" class="box"/>
  <text x="250" y="182" class="size">500px</text>
  <text x="366" y="182" class="desc">medium, grid view</text>

  <rect x="220" y="206" width="280" height="30" class="box"/>
  <text x="250" y="224" class="size">full</text>
  <text x="356" y="224" class="desc">lightbox view</text>

  <text x="260" y="262" class="note">Referenced in JSON manifest for Pig.js justified grid</text>
</svg>
